<svg width="10" height="11" viewBox="0 0 10 11" fill="none" xmlns="http://www.w3.org/2000/svg">
<path fill-rule="evenodd" clip-rule="evenodd" d="M0.209371 0.709048C0.488101 0.429886 0.940362 0.429537 1.21952 0.708267L5.00308 4.48598L8.7808 0.702426C9.05953 0.423265 9.51179 0.422915 9.79095 0.701646C10.0701 0.980376 10.0705 1.43264 9.79173 1.7118L6.01401 5.49536L9.79757 9.27307C10.0767 9.5518 10.0771 10.0041 9.79835 10.2832C9.51962 10.5624 9.06736 10.5627 8.7882 10.284L5.00464 6.50629L1.22693 10.2898C0.948195 10.569 0.495935 10.5694 0.216773 10.2906C-0.0623882 10.0119 -0.0627376 9.55963 0.215993 9.28047L3.99371 5.49692L0.210151 1.7192C-0.06901 1.44047 -0.0693594 0.988209 0.209371 0.709048Z" fill="#1C3144" fill-opacity="0.6"/>
</svg>
